<svg width="15" height="16" viewBox="0 0 15 16" fill="none" xmlns="http://www.w3.org/2000/svg">
<path d="M4.46875 13.6875C4.3125 13.5313 4.23438 13.3463 4.23438 13.1325C4.23438 12.9192 4.3125 12.7344 4.46875 12.5781L9.04688 8L4.45312 3.40625C4.30729 3.26042 4.23438 3.07813 4.23438 2.85938C4.23438 2.64063 4.3125 2.45313 4.46875 2.29688C4.625 2.14063 4.81 2.0625 5.02375 2.0625C5.23708 2.0625 5.42188 2.14063 5.57813 2.29688L10.8281 7.5625C10.8906 7.625 10.935 7.69271 10.9613 7.76563C10.9871 7.83854 11 7.91667 11 8C11 8.08333 10.9871 8.16146 10.9613 8.23438C10.935 8.30729 10.8906 8.375 10.8281 8.4375L5.5625 13.7031C5.41667 13.849 5.23708 13.9219 5.02375 13.9219C4.81 13.9219 4.625 13.8438 4.46875 13.6875Z" fill="white"/>
</svg>
